<svg width="490" height="506" viewBox="0 0 490 506" fill="none" xmlns="http://www.w3.org/2000/svg">
<g filter="url(#filter0_d_1_51)">
<g filter="url(#filter1_di_1_51)">
<path d="M341.901 359.953C341.901 375.973 235.138 426.204 210.085 426.733C185.032 427.261 119.494 392.45 87.2452 372.336C54.9967 352.222 152.619 281.898 130.239 234.796C107.859 187.693 120.639 162.01 130.239 150.989C139.839 139.969 209.285 46.0345 210.085 67.1826C210.885 88.3307 247.412 116.547 253.315 103.587C259.218 90.6283 272.683 144.382 289.931 150.989C307.179 157.596 346.188 162.36 341.901 178.188C337.614 194.016 404.401 282.915 399.516 295.074C394.631 307.233 341.901 343.933 341.901 359.953Z" fill="#0255FF" shape-rendering="crispEdges"/>
<path d="M341.901 359.953C341.901 375.973 235.138 426.204 210.085 426.733C185.032 427.261 119.494 392.45 87.2452 372.336C54.9967 352.222 152.619 281.898 130.239 234.796C107.859 187.693 120.639 162.01 130.239 150.989C139.839 139.969 209.285 46.0345 210.085 67.1826C210.885 88.3307 247.412 116.547 253.315 103.587C259.218 90.6283 272.683 144.382 289.931 150.989C307.179 157.596 346.188 162.36 341.901 178.188C337.614 194.016 404.401 282.915 399.516 295.074C394.631 307.233 341.901 343.933 341.901 359.953Z" stroke="black" stroke-opacity="0.2" shape-rendering="crispEdges"/>
</g>
<g filter="url(#filter2_di_1_51)">
<path d="M337.801 390.118C333.74 405.674 217.334 430.411 192.873 425.283C168.411 420.155 113.596 371.595 87.3809 344.802C61.1655 318.01 173.788 271.704 163.998 220.926C154.207 170.149 173.128 148.086 185.244 139.547C197.36 131.007 288.608 55.4299 284.024 76.1457C279.439 96.8616 307.755 132.485 316.772 121.23C325.789 109.975 325.237 165.204 340.311 175.504C355.384 185.803 392.056 199.212 383.881 213.617C375.706 228.021 418.021 329.383 410.195 340.091C402.369 350.798 341.862 374.562 337.801 390.118Z" fill="#0255FF" fill-opacity="0.9" shape-rendering="crispEdges"/>
<path d="M337.801 390.118C333.74 405.674 217.334 430.411 192.873 425.283C168.411 420.155 113.596 371.595 87.3809 344.802C61.1655 318.01 173.788 271.704 163.998 220.926C154.207 170.149 173.128 148.086 185.244 139.547C197.36 131.007 288.608 55.4299 284.024 76.1457C279.439 96.8616 307.755 132.485 316.772 121.23C325.789 109.975 325.237 165.204 340.311 175.504C355.384 185.803 392.056 199.212 383.881 213.617C375.706 228.021 418.021 329.383 410.195 340.091C402.369 350.798 341.862 374.562 337.801 390.118Z" stroke="black" stroke-opacity="0.2" shape-rendering="crispEdges"/>
</g>
<g filter="url(#filter3_di_1_51)">
<path d="M245.79 399.636C241.728 415.192 237.515 404.763 213.054 399.636C188.592 394.508 174.749 390.687 148.533 363.894C122.318 337.102 131.394 342.233 121.603 291.456C111.813 240.678 104.999 182.084 117.115 173.544C129.23 165.004 132.824 123.988 117.115 100.048C101.405 76.1073 170.935 148.315 179.952 137.06C188.969 125.805 233.226 174.722 248.299 185.022C263.372 195.321 300.045 208.73 291.869 223.134C283.694 237.539 326.009 338.901 318.183 349.609C310.357 360.316 249.851 384.08 245.79 399.636Z" fill="#0255FF" fill-opacity="0.8" shape-rendering="crispEdges"/>
<path d="M245.79 399.636C241.728 415.192 237.515 404.763 213.054 399.636C188.592 394.508 174.749 390.687 148.533 363.894C122.318 337.102 131.394 342.233 121.603 291.456C111.813 240.678 104.999 182.084 117.115 173.544C129.23 165.004 132.824 123.988 117.115 100.048C101.405 76.1073 170.935 148.315 179.952 137.06C188.969 125.805 233.226 174.722 248.299 185.022C263.372 195.321 300.045 208.73 291.869 223.134C283.694 237.539 326.009 338.901 318.183 349.609C310.357 360.316 249.851 384.08 245.79 399.636Z" stroke="black" stroke-opacity="0.2" shape-rendering="crispEdges"/>
</g>
<g filter="url(#filter4_di_1_51)">
<path d="M195.958 423.085C200.019 438.641 281.349 408.347 305.811 403.22C330.273 398.092 330.09 394.888 356.305 368.095C382.521 341.303 429.146 328.968 397.167 319.45C365.187 309.933 424.563 250.598 397.167 256.529C369.77 262.46 379.118 163.922 397.167 139.373C415.215 114.824 343.347 187.64 334.329 176.385C325.312 165.131 281.056 214.048 265.982 224.347C250.909 234.646 214.237 248.055 222.412 262.46C230.587 276.864 188.272 378.227 196.098 388.934C203.924 399.641 191.896 407.529 195.958 423.085Z" fill="#0255FF" fill-opacity="0.7" shape-rendering="crispEdges"/>
<path d="M195.958 423.085C200.019 438.641 281.349 408.347 305.811 403.22C330.273 398.092 330.09 394.888 356.305 368.095C382.521 341.303 429.146 328.968 397.167 319.45C365.187 309.933 424.563 250.598 397.167 256.529C369.77 262.46 379.118 163.922 397.167 139.373C415.215 114.824 343.347 187.64 334.329 176.385C325.312 165.131 281.056 214.048 265.982 224.347C250.909 234.646 214.237 248.055 222.412 262.46C230.587 276.864 188.272 378.227 196.098 388.934C203.924 399.641 191.896 407.529 195.958 423.085Z" stroke="black" stroke-opacity="0.2" shape-rendering="crispEdges"/>
</g>
<g filter="url(#filter5_di_1_51)">
<path d="M337.606 359.664C337.606 375.684 235.138 426.204 210.085 426.733C185.031 427.262 125.531 406.078 100.284 390.332C75.0365 374.585 106.393 357.064 84.0131 309.962C61.6333 262.859 121.541 349.006 131.141 337.985C140.741 326.965 146.85 231.178 160.876 250.741C174.903 270.305 204.182 297.541 210.085 284.581C215.987 271.622 298.333 320.007 314.042 276.65C329.751 233.292 342.656 323.18 367.903 318.421C393.15 313.662 355.395 335.343 350.51 347.502C345.625 359.662 337.606 343.644 337.606 359.664Z" fill="#0255FF" fill-opacity="0.6" shape-rendering="crispEdges"/>
<path d="M337.606 359.664C337.606 375.684 235.138 426.204 210.085 426.733C185.031 427.262 125.531 406.078 100.284 390.332C75.0365 374.585 106.393 357.064 84.0131 309.962C61.6333 262.859 121.541 349.006 131.141 337.985C140.741 326.965 146.85 231.178 160.876 250.741C174.903 270.305 204.182 297.541 210.085 284.581C215.987 271.622 298.333 320.007 314.042 276.65C329.751 233.292 342.656 323.18 367.903 318.421C393.15 313.662 355.395 335.343 350.51 347.502C345.625 359.662 337.606 343.644 337.606 359.664Z" stroke="black" stroke-opacity="0.2" shape-rendering="crispEdges"/>
</g>
</g>
<defs>
<filter id="filter0_d_1_51" x="0.543549" y="-14.4072" width="489.125" height="520.389" filterUnits="userSpaceOnUse" color-interpolation-filters="sRGB">
<feFlood flood-opacity="0" result="BackgroundImageFix"/>
<feColorMatrix in="SourceAlpha" type="matrix" values="0 0 0 0 0 0 0 0 0 0 0 0 0 0 0 0 0 0 127 0" result="hardAlpha"/>
<feOffset/>
<feGaussianBlur stdDeviation="39"/>
<feComposite in2="hardAlpha" operator="out"/>
<feColorMatrix type="matrix" values="0 0 0 0 0.00784314 0 0 0 0 0.333333 0 0 0 0 1 0 0 0 0.8 0"/>
<feBlend mode="normal" in2="BackgroundImageFix" result="effect1_dropShadow_1_51"/>
<feBlend mode="normal" in="SourceGraphic" in2="effect1_dropShadow_1_51" result="shape"/>
</filter>
<filter id="filter1_di_1_51" x="73.3468" y="60.7928" width="333.725" height="377.246" filterUnits="userSpaceOnUse" color-interpolation-filters="sRGB">
<feFlood flood-opacity="0" result="BackgroundImageFix"/>
<feColorMatrix in="SourceAlpha" type="matrix" values="0 0 0 0 0 0 0 0 0 0 0 0 0 0 0 0 0 0 127 0" result="hardAlpha"/>
<feOffset dy="4"/>
<feGaussianBlur stdDeviation="3.4"/>
<feComposite in2="hardAlpha" operator="out"/>
<feColorMatrix type="matrix" values="0 0 0 0 0.178618 0 0 0 0 0.91044 0 0 0 0 0.976969 0 0 0 0.25 0"/>
<feBlend mode="normal" in2="BackgroundImageFix" result="effect1_dropShadow_1_51"/>
<feBlend mode="normal" in="SourceGraphic" in2="effect1_dropShadow_1_51" result="shape"/>
<feColorMatrix in="SourceAlpha" type="matrix" values="0 0 0 0 0 0 0 0 0 0 0 0 0 0 0 0 0 0 127 0" result="hardAlpha"/>
<feOffset/>
<feGaussianBlur stdDeviation="40"/>
<feComposite in2="hardAlpha" operator="arithmetic" k2="-1" k3="1"/>
<feColorMatrix type="matrix" values="0 0 0 0 1 0 0 0 0 1 0 0 0 0 1 0 0 0 0.49 0"/>
<feBlend mode="normal" in2="shape" result="effect2_innerShadow_1_51"/>
</filter>
<filter id="filter2_di_1_51" x="76.1095" y="69.2689" width="342.359" height="367.998" filterUnits="userSpaceOnUse" color-interpolation-filters="sRGB">
<feFlood flood-opacity="0" result="BackgroundImageFix"/>
<feColorMatrix in="SourceAlpha" type="matrix" values="0 0 0 0 0 0 0 0 0 0 0 0 0 0 0 0 0 0 127 0" result="hardAlpha"/>
<feOffset dy="4"/>
<feGaussianBlur stdDeviation="3.4"/>
<feComposite in2="hardAlpha" operator="out"/>
<feColorMatrix type="matrix" values="0 0 0 0 0.178618 0 0 0 0 0.91044 0 0 0 0 0.976969 0 0 0 0.25 0"/>
<feBlend mode="normal" in2="BackgroundImageFix" result="effect1_dropShadow_1_51"/>
<feBlend mode="normal" in="SourceGraphic" in2="effect1_dropShadow_1_51" result="shape"/>
<feColorMatrix in="SourceAlpha" type="matrix" values="0 0 0 0 0 0 0 0 0 0 0 0 0 0 0 0 0 0 127 0" result="hardAlpha"/>
<feOffset/>
<feGaussianBlur stdDeviation="40"/>
<feComposite in2="hardAlpha" operator="arithmetic" k2="-1" k3="1"/>
<feColorMatrix type="matrix" values="0 0 0 0 1 0 0 0 0 1 0 0 0 0 1 0 0 0 0.49 0"/>
<feBlend mode="normal" in2="shape" result="effect2_innerShadow_1_51"/>
</filter>
<filter id="filter3_di_1_51" x="103.324" y="91.8536" width="223.133" height="327.278" filterUnits="userSpaceOnUse" color-interpolation-filters="sRGB">
<feFlood flood-opacity="0" result="BackgroundImageFix"/>
<feColorMatrix in="SourceAlpha" type="matrix" values="0 0 0 0 0 0 0 0 0 0 0 0 0 0 0 0 0 0 127 0" result="hardAlpha"/>
<feOffset dy="4"/>
<feGaussianBlur stdDeviation="3.4"/>
<feComposite in2="hardAlpha" operator="out"/>
<feColorMatrix type="matrix" values="0 0 0 0 0.178618 0 0 0 0 0.91044 0 0 0 0 0.976969 0 0 0 0.25 0"/>
<feBlend mode="normal" in2="BackgroundImageFix" result="effect1_dropShadow_1_51"/>
<feBlend mode="normal" in="SourceGraphic" in2="effect1_dropShadow_1_51" result="shape"/>
<feColorMatrix in="SourceAlpha" type="matrix" values="0 0 0 0 0 0 0 0 0 0 0 0 0 0 0 0 0 0 127 0" result="hardAlpha"/>
<feOffset/>
<feGaussianBlur stdDeviation="40"/>
<feComposite in2="hardAlpha" operator="arithmetic" k2="-1" k3="1"/>
<feColorMatrix type="matrix" values="0 0 0 0 1 0 0 0 0 1 0 0 0 0 1 0 0 0 0.49 0"/>
<feBlend mode="normal" in2="shape" result="effect2_innerShadow_1_51"/>
</filter>
<filter id="filter4_di_1_51" x="187.792" y="130.986" width="227.489" height="307.796" filterUnits="userSpaceOnUse" color-interpolation-filters="sRGB">
<feFlood flood-opacity="0" result="BackgroundImageFix"/>
<feColorMatrix in="SourceAlpha" type="matrix" values="0 0 0 0 0 0 0 0 0 0 0 0 0 0 0 0 0 0 127 0" result="hardAlpha"/>
<feOffset dy="4"/>
<feGaussianBlur stdDeviation="3.4"/>
<feComposite in2="hardAlpha" operator="out"/>
<feColorMatrix type="matrix" values="0 0 0 0 0.178618 0 0 0 0 0.91044 0 0 0 0 0.976969 0 0 0 0.25 0"/>
<feBlend mode="normal" in2="BackgroundImageFix" result="effect1_dropShadow_1_51"/>
<feBlend mode="normal" in="SourceGraphic" in2="effect1_dropShadow_1_51" result="shape"/>
<feColorMatrix in="SourceAlpha" type="matrix" values="0 0 0 0 0 0 0 0 0 0 0 0 0 0 0 0 0 0 127 0" result="hardAlpha"/>
<feOffset/>
<feGaussianBlur stdDeviation="40"/>
<feComposite in2="hardAlpha" operator="arithmetic" k2="-1" k3="1"/>
<feColorMatrix type="matrix" values="0 0 0 0 1 0 0 0 0 1 0 0 0 0 1 0 0 0 0.49 0"/>
<feBlend mode="normal" in2="shape" result="effect2_innerShadow_1_51"/>
</filter>
<filter id="filter5_di_1_51" x="71.7435" y="244.815" width="312.081" height="193.228" filterUnits="userSpaceOnUse" color-interpolation-filters="sRGB">
<feFlood flood-opacity="0" result="BackgroundImageFix"/>
<feColorMatrix in="SourceAlpha" type="matrix" values="0 0 0 0 0 0 0 0 0 0 0 0 0 0 0 0 0 0 127 0" result="hardAlpha"/>
<feOffset dy="4"/>
<feGaussianBlur stdDeviation="3.4"/>
<feComposite in2="hardAlpha" operator="out"/>
<feColorMatrix type="matrix" values="0 0 0 0 0.178618 0 0 0 0 0.20523 0 0 0 0 0.976969 0 0 0 0.25 0"/>
<feBlend mode="normal" in2="BackgroundImageFix" result="effect1_dropShadow_1_51"/>
<feBlend mode="normal" in="SourceGraphic" in2="effect1_dropShadow_1_51" result="shape"/>
<feColorMatrix in="SourceAlpha" type="matrix" values="0 0 0 0 0 0 0 0 0 0 0 0 0 0 0 0 0 0 127 0" result="hardAlpha"/>
<feOffset/>
<feGaussianBlur stdDeviation="40"/>
<feComposite in2="hardAlpha" operator="arithmetic" k2="-1" k3="1"/>
<feColorMatrix type="matrix" values="0 0 0 0 1 0 0 0 0 1 0 0 0 0 1 0 0 0 0.49 0"/>
<feBlend mode="normal" in2="shape" result="effect2_innerShadow_1_51"/>
</filter>
</defs>
</svg>
